<?xml version="1.0" encoding="UTF-8"?>
<svg width="300px" height="300px" viewBox="0 0 300 300" version="1.1" xmlns="http://www.w3.org/2000/svg" xmlns:xlink="http://www.w3.org/1999/xlink">
    <!-- Generator: Sketch 44.1 (41455) - http://www.bohemiancoding.com/sketch -->
    <title>300sq</title>
    <desc>Created with Sketch.</desc>
    <defs></defs>
    <g id="Page-1" stroke="none" stroke-width="1" fill="none" fill-rule="evenodd">
        <g id="300sq" fill="#374046">
            <path d="M296.46402,105.17866 L158.37469,243.081886 C156.017358,245.439218 153.225823,246.617866 150,246.617866 C146.774177,246.617866 143.982642,245.439218 141.62531,243.081886 L3.53598015,105.17866 C1.17864826,102.821328 0,99.9987757 0,96.7109181 C0,93.4230605 1.17864826,90.6005081 3.53598015,88.2431762 L34.4292804,57.5359801 C36.7866123,55.1786483 39.5781476,54 42.8039702,54 C46.0297928,54 48.8213282,55.1786483 51.17866,57.5359801 L150,156.35732 L248.82134,57.5359801 C251.178672,55.1786483 253.970207,54 257.19603,54 C260.421852,54 263.213388,55.1786483 265.57072,57.5359801 L296.46402,88.2431762 C298.821352,90.6005081 300,93.4230605 300,96.7109181 C300,99.9987757 298.821352,102.821328 296.46402,105.17866 Z" id="ï¸"></path>
        </g>
    </g>
</svg>